<?xml version="1.0" encoding="utf-8"?>
<!-- Svg Vector Icons : http://www.onlinewebfonts.com/icon -->
<!DOCTYPE svg PUBLIC "-//W3C//DTD SVG 1.1//EN" "http://www.w3.org/Graphics/SVG/1.1/DTD/svg11.dtd">
<svg version="1.1" xmlns="http://www.w3.org/2000/svg" xmlns:xlink="http://www.w3.org/1999/xlink" x="0px" y="0px" viewBox="0 0 256 256" enable-background="new 0 0 256 256" xml:space="preserve">
<metadata> Svg Vector Icons : http://www.onlinewebfonts.com/icon </metadata>
<g><g><g><path fill="#FFF" d="M117.3,10.3c-27.9,2.7-53,14.5-72.7,34.3c-9.7,9.7-16.8,19.6-22.7,31.7c-5.4,11.1-8.7,21.5-10.7,34.1c-1.4,9-1.4,25.7,0,35c3.9,25.3,15.3,47.8,33,65.6c9.2,9.3,18.5,16.1,29.6,21.9c34.1,17.7,74.4,17.7,108.3,0.1c6.5-3.4,14.3-8.5,20-13c5-4,13.8-12.7,17.8-17.8c29.4-36.9,34.5-86.7,12.9-128.3c-9.6-18.6-24.6-34.8-42.5-46.1c-5.1-3.2-15.7-8.4-21.6-10.6c-6.4-2.4-16-4.8-23.2-5.9C138.5,10.1,123.6,9.6,117.3,10.3z M140.9,63.7c2.4,0.8,4.4,2.8,29.3,27.6c30.3,30.3,29.2,28.8,29.4,36c0.1,3.4,0,4.7-0.8,6.9c-1,2.6-2.2,3.9-27.8,29.6c-30.8,30.9-28.8,29.3-36.6,29.3c-4.4,0-5.1-0.1-7.5-1.3c-3.2-1.6-6.6-5.1-8.2-8.6c-1.1-2.2-1.3-3.2-1.3-6.8c0-6.8,0.6-7.7,13.3-20.5l10.7-10.7l-36.4-0.1l-36.3-0.1l-3.1-1.5c-6.2-3.1-9.7-8.6-9.7-15.4c0-6.9,3.5-12.3,9.7-15.4l3.1-1.5l36.3-0.1l36.4-0.1L130.8,100c-12.7-12.8-13.3-13.7-13.3-20.5c0-3.6,0.2-4.6,1.3-6.8C122.7,64.1,131.9,60.4,140.9,63.7z"/></g></g></g>
</svg>
